<svg height="40" viewBox="0 0 3292 625" xmlns="http://www.w3.org/2000/svg" fill-rule="evenodd" clip-rule="evenodd" stroke-linejoin="round" stroke-miterlimit="2"><path d="M327.646 281.152v69.274l119.045-64.215v332.515h45.268V192.514l-164.313 88.638z" fill="#e6e6e6" fill-rule="nonzero"></path><path d="M264.181 407.767v22.004l63.467 34.253v154.701h100.831V319.134l-164.298 88.633z" fill="#fff" fill-rule="nonzero"></path><path d="M311.148 479.143l-164.303-88.638v228.221h164.303V479.143z" fill="#f58a23" fill-rule="nonzero"></path><path d="M353.661 249.168v-81.225L23.024 5.17v615.498h45.778V193.376l193.299 106.827v96.649l55.95-35.61v-91.561l35.61-20.513z" fill="#fff" fill-rule="nonzero"></path><path d="M130.344 358.436l116.633 62.921V303.585L82.679 214.948v402.379h47.665V358.436z" fill="#e6e6e6" fill-rule="nonzero"></path><path d="M746.279 140.92c-77.331.902-137.973 53.433-137.973 119.492 0 81.383 71.914 105.053 134.474 116.553 79.025 14.656 79.025 35.283 79.025 50.386 0 26.944-33.138 49.747-72.37 49.747-39.228 0-72.371-22.803-72.371-49.747h-73.495c0 67.886 65.498 123.128 145.866 123.128 80.368 0 145.752-55.242 145.752-123.128 0-85.893-74.283-110.578-139.103-122.529-74.283-13.75-74.283-32.236-74.283-44.41 0-24.576 29.873-45.659 65.265-45.996 36.072-.451 66.846 19.953 67.297 44.415l73.496-1.353c-1.239-65.042-64.701-117.341-141.58-116.558M1502.54 475.964c-44.079 0-79.922-35.873-79.922-79.952 0-44.068 35.843-79.917 79.922-79.917 44.187 0 79.922 35.849 79.922 79.917 0 44.079-35.735 79.952-79.922 79.952m0-232.918c-84.317 0-152.967 68.654-152.967 152.966 0 84.347 68.65 152.991 152.967 152.991 29.308 0 56.698-8.448 79.922-22.767v17.59h73.158V397.37h-.114c0-.451.114-.902.114-1.358 0-84.312-68.65-152.966-153.08-152.966M1688.88 349.687v194.142h73.045V349.687c0-15.558 12.625-28.178 28.183-28.178h64.725v-73.054h-64.725c-55.802 0-101.228 45.431-101.228 101.232M1958.2 155.466h-72.93v286.876c0 55.941 45.317 101.253 101.228 101.253h64.591v-73.04h-64.591c-15.559 0-28.298-12.655-28.298-28.213V321.508h92.889v-73.049H1958.2v-92.993zM1201.91 243.047c-31.34 0-59.741 12.402-80.824 32.469-21.073-20.067-49.593-32.469-80.933-32.469-64.705 0-117.351 52.65-117.351 117.351v183.196h73.05V360.398c0-24.462 19.839-44.302 44.301-44.302 24.457 0 44.411 19.84 44.411 44.302v183.196h73.049V360.398c0-24.462 19.834-44.302 44.297-44.302 24.462 0 44.301 19.84 44.301 44.302v183.196h73.044V360.398c0-64.701-52.64-117.351-117.345-117.351M3121.08 140.92c-77.331.902-137.973 53.433-137.973 119.492 0 81.383 71.914 105.053 134.474 116.553 79.021 14.656 79.021 35.283 79.021 50.386 0 26.944-33.139 49.747-72.366 49.747-39.228 0-72.371-22.803-72.371-49.747h-73.495c0 67.886 65.493 123.128 145.866 123.128 80.368 0 145.752-55.242 145.752-123.128 0-85.893-74.288-110.578-139.103-122.529-74.288-13.75-74.288-32.236-74.288-44.41 0-24.576 29.878-45.659 65.27-45.996 36.067-.451 66.846 19.953 67.297 44.415l73.496-1.353c-1.239-65.042-64.706-117.341-141.58-116.558M2804.71 140.916c-41.987 0-80.04 16.613-108.283 43.494-28.243-26.881-66.455-43.494-108.447-43.494-86.69 0-157.223 70.532-157.223 157.222v245.459h89.941V298.138c0-32.771 34.51-67.282 67.282-67.282 32.776 0 67.44 34.511 67.44 67.282v245.459h82.008V298.138c0-32.771 34.506-67.282 67.282-67.282 32.777 0 67.287 34.511 67.287 67.282v245.459h89.936V298.138c0-86.69-70.528-157.222-157.223-157.222M2176.73 213.288h44.47c47.893 0 73.599 13.369 73.599 53.161 0 39.441-25.706 60.058-73.599 60.058h-44.47V213.288zm226.804 330.539L2312.449 382.7c43.018-19.443 71.761-57.05 71.761-116.251 0-95.857-70.24-125.531-155.588-125.531h-143.255v402.909h91.363V398.883h47.889l76.909 144.944h102.006z" fill="#fff" fill-rule="nonzero"></path></svg>